# File created by Blade
# Date/Time:  Wed Sep 24 19:25:39 2014
# Frame Rate: 120.000 fps
#------------------------------------------------------
:FULLY-SPECIFIED
:DEGREES
2522
root -16.128982 32.403778 -4.821891 15.669870 41.047985 0.768137
Spine -12.801725 1.801197 13.619303
Head 1.493574 -6.253883 -6.509484
LeftShoulder -10.114046 21.325826 6.445143
LeftArm 27.601884 28.534995 -67.674580
LeftForeArm 15.203873 0.000000 54.813741
LeftHand -26.375305 -0.000000 -5.007256
LeftHandThumb1 -26.253704 0.000000 33.147579
RightShoulder -17.597174 11.910038 -30.699520
RightArm -16.260080 25.176533 55.508057
RightForeArm -5.446774 -0.000000 124.320272
RightHand -11.617403 -0.000000 -5.339934
RightHandThumb1 -24.326973 -0.000000 -32.862282
LeftUpLeg -33.832825 42.305746 6.130725
LeftLeg 99.705899 -0.000000 -0.000000
LeftFoot 35.259058 21.177671 -23.356903
LeftToeBase 26.838552 -0.000000 -0.000000
RightUpLeg -13.898305 -6.836044 10.427522
RightLeg 0.088971 -0.000000 -0.000000
RightFoot -8.857400 -18.731300 -7.773433
RightToeBase 0.615660 -0.000000 -0.000000
2523
root -16.118019 32.405863 -4.825748 15.662981 40.994559 0.780356
Spine -12.756153 1.911303 13.621036
Head 1.692122 -5.844546 -6.486597
LeftShoulder -10.195124 21.382614 6.402156
LeftArm 27.437924 28.439468 -67.818845
LeftForeArm 14.929487 -0.000000 54.624074
LeftHand -26.441889 -0.000000 -4.650340
LeftHandThumb1 -26.253704 0.000000 33.147579
RightShoulder -17.629438 11.911417 -30.714123
RightArm -16.264282 25.352937 55.389861
RightForeArm -5.056457 -0.000000 124.308328
RightHand -11.618941 0.000000 -5.131307
RightHandThumb1 -24.326973 -0.000000 -32.862282
LeftUpLeg -33.715273 42.168887 6.109559
LeftLeg 99.634747 -0.000000 -0.000000
LeftFoot 35.184753 21.200934 -23.422933
LeftToeBase 26.934104 -0.000000 -0.000000
RightUpLeg -13.872245 -6.860553 10.396263
RightLeg 0.080739 -0.000000 -0.000000
RightFoot -8.877710 -18.652295 -7.700017
RightToeBase 0.557704 -0.000000 -0.000000
2524
root -16.118293 32.406152 -4.832448 15.651256 40.974658 0.738774
Spine -12.716553 2.020016 13.661350
Head 1.849167 -5.432365 -6.458519
LeftShoulder -10.240195 21.419635 6.407416
LeftArm 27.250724 28.340808 -67.989888
LeftForeArm 14.824058 -0.000000 54.465674
LeftHand -26.497439 -0.000000 -4.493625
LeftHandThumb1 -26.253704 0.000000 33.147579
RightShoulder -17.677025 11.950773 -30.757951
RightArm -16.279432 25.575549 55.282358
RightForeArm -4.524859 0.000000 124.294281
RightHand -11.639345 -0.000000 -5.021725
RightHandThumb1 -24.326973 -0.000000 -32.862282
LeftUpLeg -33.689319 42.031469 6.087235
LeftLeg 99.575348 -0.000000 -0.000000
LeftFoot 35.606921 20.993024 -22.743694
LeftToeBase 26.137095 -0.000000 -0.000000
RightUpLeg -13.904223 -6.908502 10.436774
RightLeg 0.099359 -0.000000 -0.000000
RightFoot -8.901699 -18.591340 -7.688848
RightToeBase 0.605123 -0.000000 -0.000000
2525
root -16.120977 32.407077 -4.838856 15.635853 40.925212 0.661873
Spine -12.695501 2.155437 13.723038
Head 2.023173 -4.981113 -6.430601
LeftShoulder -10.305035 21.471611 6.399488
LeftArm 27.053349 28.229017 -68.159598
LeftForeArm 14.671374 -0.000000 54.327987
LeftHand -26.494313 -0.000000 -4.489342
LeftHandThumb1 -26.253704 0.000000 33.147579
RightShoulder -17.709830 11.981882 -30.803882
RightArm -16.214307 25.822561 55.200814
RightForeArm -3.943922 -0.000000 124.254611
RightHand -11.669612 -0.000000 -4.840382
RightHandThumb1 -24.326973 -0.000000 -32.862282
LeftUpLeg -33.681889 41.910494 6.088467
LeftLeg 99.541033 -0.000000 -0.000000
LeftFoot 35.709172 20.979504 -22.668717
LeftToeBase 25.844932 -0.000000 -0.000000
RightUpLeg -13.969428 -7.093600 10.543596
RightLeg 0.126695 -0.000000 -0.000000
RightFoot -8.900616 -18.348561 -7.719251
RightToeBase 0.605101 -0.000000 -0.000000
2526
root -16.118464 32.407044 -4.843148 15.624059 40.844170 0.624990
Spine -12.661077 2.307631 13.736577
Head 2.234360 -4.504094 -6.407271
LeftShoulder -10.380134 21.564725 6.399336
LeftArm 26.877384 28.117823 -68.320321
LeftForeArm 14.494814 0.000000 54.194052
LeftHand -26.511209 -0.000000 -4.536077
LeftHandThumb1 -26.253704 0.000000 33.147579
RightShoulder -17.744021 12.038209 -30.872374
RightArm -16.222664 26.161859 55.102912
RightForeArm -2.830138 0.000000 124.194141
RightHand -11.672869 -0.000000 -4.568469
RightHandThumb1 -24.326973 -0.000000 -32.862282
LeftUpLeg -33.616634 41.796513 6.079315
LeftLeg 99.510108 -0.000000 -0.000000
LeftFoot 35.619824 20.986084 -22.790956
LeftToeBase 25.963996 -0.000000 -0.000000
RightUpLeg -13.986015 -7.133259 10.576102
RightLeg 0.134256 -0.000000 -0.000000
RightFoot -8.913598 -18.244285 -7.710473
RightToeBase 0.583188 -0.000000 -0.000000
